<svg style="display: none" xmlns="http://www.w3.org/2000/svg" xmlns:xlink="http://www.w3.org/1999/xlink">
	<svg id="facebook" xmlns="http://www.w3.org/2000/svg"  viewBox="0 0 30 30" width="30px" height="30px">    <path d="M24,4H6C4.895,4,4,4.895,4,6v18c0,1.105,0.895,2,2,2h10v-9h-3v-3h3v-1.611C16,9.339,17.486,8,20.021,8 c1.214,0,1.856,0.09,2.16,0.131V11h-1.729C19.376,11,19,11.568,19,12.718V14h3.154l-0.428,3H19v9h5c1.105,0,2-0.895,2-2V6 C26,4.895,25.104,4,24,4z"/></svg>
	<svg id="instagram" xmlns="http://www.w3.org/2000/svg" width="24" height="24" viewBox="0 0 24 24"><path d="M12 2.163c3.204 0 3.584.012 4.85.07 3.252.148 4.771 1.691 4.919 4.919.058 1.265.069 1.645.069 4.849 0 3.205-.012 3.584-.069 4.849-.149 3.225-1.664 4.771-4.919 4.919-1.266.058-1.644.07-4.85.07-3.204 0-3.584-.012-4.849-.07-3.26-.149-4.771-1.699-4.919-4.92-.058-1.265-.07-1.644-.07-4.849 0-3.204.013-3.583.07-4.849.149-3.227 1.664-4.771 4.919-4.919 1.266-.057 1.645-.069 4.849-.069zm0-2.163c-3.259 0-3.667.014-4.947.072-4.358.2-6.78 2.618-6.98 6.98-.059 1.281-.073 1.689-.073 4.948 0 3.259.014 3.668.072 4.948.2 4.358 2.618 6.78 6.98 6.98 1.281.058 1.689.072 4.948.072 3.259 0 3.668-.014 4.948-.072 4.354-.2 6.782-2.618 6.979-6.98.059-1.28.073-1.689.073-4.948 0-3.259-.014-3.667-.072-4.947-.196-4.354-2.617-6.78-6.979-6.98-1.281-.059-1.69-.073-4.949-.073zm0 5.838c-3.403 0-6.162 2.759-6.162 6.162s2.759 6.163 6.162 6.163 6.162-2.759 6.162-6.163c0-3.403-2.759-6.162-6.162-6.162zm0 10.162c-2.209 0-4-1.79-4-4 0-2.209 1.791-4 4-4s4 1.791 4 4c0 2.21-1.791 4-4 4zm6.406-11.845c-.796 0-1.441.645-1.441 1.44s.645 1.44 1.441 1.44c.795 0 1.439-.645 1.439-1.44s-.644-1.44-1.439-1.44z"/></svg>
	<svg id="youtube" xmlns="http://www.w3.org/2000/svg"  viewBox="0 0 50 50" width="50px" height="50px" fill-rule="evenodd"><path fill-rule="evenodd" d="M 13 5 L 16 14 L 16 20 L 18 20 L 18 14 L 21 5 L 19 5 L 17 11 L 15 5 Z M 24 9 C 22.933594 9 22.410156 9.167969 21.757813 9.703125 C 21.132813 10.230469 20.960938 10.636719 21 12 L 21 17 C 21 17.996094 21.164063 18.652344 21.765625 19.234375 C 22.390625 19.816406 22.980469 20 24 20 C 25.066406 20 25.648438 19.816406 26.25 19.234375 C 26.875 18.675781 27 17.996094 27 17 L 27 12 C 27 11.117188 26.84375 10.28125 26.238281 9.722656 C 25.613281 9.148438 24.96875 9 24 9 Z M 29 9 L 29 18 C 29 18.972656 29.980469 20 31 20 C 32.019531 20 32.558594 19.488281 33 19 L 33 20 L 35 20 L 35 9 L 33 9 L 33 17 C 32.988281 17.683594 32.183594 18 32 18 C 31.792969 18 31 17.957031 31 17 L 31 9 Z M 24 11 C 24.300781 11 25 10.996094 25 12 L 25 17 C 25 17.96875 24.324219 18 24 18 C 23.699219 18 23 17.988281 23 17 L 23 12 C 23 11.183594 23.433594 11 24 11 Z M 25.457031 21.921875 C 20.414063 21.910156 15.375 21.921875 10.332031 22 C 9.652344 22.019531 8.972656 22.117188 8.324219 22.328125 C 7.800781 22.503906 7.300781 22.746094 6.847656 23.0625 C 6.3125 23.4375 5.851563 23.910156 5.492188 24.453125 C 5.238281 24.832031 5.035156 25.246094 4.882813 25.675781 C 4.632813 26.367188 4.519531 27.097656 4.5 27.828125 C 4.449219 31.109375 4.449219 34.390625 4.5 37.671875 C 4.519531 38.296875 4.601563 38.914063 4.765625 39.519531 C 5.082031 40.660156 5.6875 41.726563 6.570313 42.527344 C 6.824219 42.757813 7.097656 42.964844 7.390625 43.144531 C 7.75 43.367188 8.136719 43.550781 8.539063 43.6875 C 9.117188 43.882813 9.722656 43.980469 10.332031 44 C 20.441406 44.1875 30.558594 44.15625 40.667969 44 C 41.347656 43.980469 42.027344 43.882813 42.675781 43.671875 C 43.199219 43.496094 43.699219 43.253906 44.152344 42.9375 C 44.6875 42.5625 45.148438 42.089844 45.511719 41.546875 C 45.761719 41.167969 45.964844 40.753906 46.121094 40.324219 C 46.367188 39.632813 46.480469 38.902344 46.5 38.171875 C 46.550781 34.753906 46.515625 31.332031 46.5 27.917969 C 46.488281 27.179688 46.382813 26.441406 46.140625 25.746094 C 45.996094 25.3125 45.796875 24.894531 45.546875 24.511719 C 45.195313 23.964844 44.738281 23.484375 44.210938 23.105469 C 43.742188 22.765625 43.222656 22.507813 42.675781 22.328125 C 42 22.109375 41.292969 22.011719 40.582031 22 C 35.542969 21.976563 30.5 21.933594 25.457031 21.921875 Z M 33.09375 23.9375 C 35.605469 23.941406 38.117188 23.960938 40.625 24 C 41.023438 24.011719 41.421875 24.058594 41.808594 24.15625 C 42.429688 24.320313 43.015625 24.628906 43.464844 25.089844 C 43.617188 25.246094 43.75 25.414063 43.871094 25.597656 C 44.039063 25.859375 44.171875 26.144531 44.265625 26.441406 C 44.421875 26.902344 44.484375 27.386719 44.5 27.875 C 44.550781 31.292969 44.550781 34.710938 44.5 38.125 C 44.484375 38.613281 44.421875 39.097656 44.265625 39.558594 C 44.171875 39.855469 44.039063 40.140625 43.871094 40.402344 C 43.75 40.585938 43.617188 40.753906 43.464844 40.910156 C 43.015625 41.371094 42.429688 41.679688 41.808594 41.84375 C 41.421875 41.941406 41.023438 41.988281 40.625 42 C 30.566406 42.15625 20.503906 42.0625 10.441406 42 C 10.011719 41.992188 9.589844 41.929688 9.179688 41.792969 C 8.921875 41.703125 8.671875 41.585938 8.441406 41.441406 C 8.253906 41.328125 8.074219 41.195313 7.914063 41.046875 C 7.296875 40.484375 6.890625 39.730469 6.679688 38.933594 C 6.566406 38.507813 6.515625 38.066406 6.5 37.625 C 6.449219 34.398438 6.484375 31.167969 6.5 27.9375 C 6.507813 27.445313 6.570313 26.957031 6.71875 26.488281 C 6.8125 26.1875 6.941406 25.902344 7.109375 25.636719 C 7.230469 25.441406 7.375 25.253906 7.535156 25.089844 C 8 24.613281 8.601563 24.304688 9.242188 24.144531 C 9.65625 24.042969 10.082031 24.003906 10.503906 24 C 18.035156 24 25.566406 23.914063 33.09375 23.9375 Z M 11 26 L 11 28 L 13 28 L 13 40 L 15 40 L 15 28 L 17 28 L 17 26 Z M 26 26 L 26 40 L 28 40 L 28 39 C 28.386719 39.449219 28.949219 40.011719 30 40 C 30.621094 39.992188 31.101563 39.492188 31.421875 39.097656 C 31.75 38.703125 32 38.242188 32 37.5 L 32 31.5 C 32 30.636719 31.726563 30.050781 31.378906 29.609375 C 31.03125 29.171875 30.523438 28.9375 29.875 28.9375 C 29.546875 28.9375 29.222656 29.03125 28.902344 29.195313 C 28.574219 29.355469 28.230469 29.640625 28 30 L 28 26 Z M 18 29 L 18 38 C 18 38.625 18.269531 38.933594 18.5 39.234375 C 18.757813 39.5625 19.308594 40 19.792969 40 C 20.183594 40 20.605469 40.015625 21.019531 39.78125 C 21.4375 39.574219 21.628906 39.4375 22 39 L 22 40 L 24 40 L 24 29 L 22 29 L 22 37 C 21.820313 37.234375 21.8125 37.992188 21 38 C 20.269531 38.007813 20 37.230469 20 37 L 20 29 Z M 36.199219 29 C 35.25 29 34.371094 29.230469 33.902344 29.710938 C 33.320313 30.308594 33.003906 30.980469 33.003906 31.886719 L 33.003906 36.59375 C 33.003906 37.613281 33.28125 38.40625 33.8125 38.984375 C 34.34375 39.5625 35.085938 39.84375 36.035156 39.84375 C 37.074219 39.84375 37.867188 39.585938 38.375 39.027344 C 38.914063 38.496094 39 37.683594 39 36.59375 L 39 36 L 37 36 L 37 36.5 C 37 37.101563 36.941406 37.566406 36.800781 37.730469 C 36.664063 37.914063 36.40625 37.996094 36 38 C 35.632813 38.003906 35.355469 37.902344 35.21875 37.671875 C 35.074219 37.460938 35 37.105469 35 36.546875 L 35 35 L 39 35 L 39 31.886719 C 39 30.886719 38.835938 30.265625 38.320313 29.734375 C 37.816406 29.203125 37.148438 29 36.199219 29 Z M 29 30.5 C 29.550781 30.5 30 31 30 32 L 30 37.023438 C 30 37.574219 29.550781 38 29 38 C 28.449219 38 28.007813 37.789063 28 37.5 L 28 31.5 C 28.007813 30.996094 28.449219 30.5 29 30.5 Z M 36 31 C 36.550781 31 37 31.386719 37 32 L 37 33 L 35 33 L 35 32 C 35.007813 31.464844 35.449219 31 36 31 Z"/></svg>
	<svg id="contacts" xmlns="http://www.w3.org/2000/svg" viewBox="0 0 50 50" enable-background="new 0 0 50 50">
    	<path style="text-indent:0;text-align:start;line-height:normal;text-transform:none;block-progression:tb;-inkscape-font-specification:Bitstream Vera Sans" d="M 24.875 3.3125 C 20.18258 3.4179476 17.213416 5.3153925 15.9375 8.25 C 14.722401 11.044728 14.976908 14.561897 15.84375 18.21875 C 15.378281 18.765687 14.997582 19.533484 15.09375 20.6875 L 15.09375 20.71875 L 15.09375 20.75 C 15.260194 21.970588 15.627277 22.827497 16.09375 23.4375 C 16.315518 23.727504 16.632414 23.741658 16.90625 23.90625 C 17.148503 25.270033 17.689857 26.571646 18.3125 27.59375 A 1.0001 1.0001 0 0 0 18.5 28 C 18.5 28 18.602659 28.127213 18.625 28.15625 C 18.937142 28.626123 19.09375 29.276601 19.09375 30 C 19.09375 30.76847 19.08235 31.484771 19 32.28125 C 18.698014 33.03913 17.950103 33.643691 16.75 34.25 C 15.497424 34.882819 13.854772 35.466518 12.1875 36.1875 C 10.520228 36.908482 8.826495 37.77573 7.46875 39.15625 C 6.111005 40.53677 5.1369927 42.444232 5 44.9375 L 4.9375 46 L 6 46 L 44 46 L 45.0625 46 L 45 44.9375 C 44.863107 42.446055 43.913967 40.537516 42.5625 39.15625 C 41.211033 37.774984 39.511883 36.908855 37.84375 36.1875 C 36.175617 35.466145 34.524765 34.885197 33.25 34.25 C 32.014894 33.634564 31.240663 33.003799 30.90625 32.21875 C 30.828737 31.271997 30.8125 30.525505 30.8125 29.6875 C 30.8125 29.150994 30.997748 28.66916 31.3125 28.1875 C 31.3198 28.17714 31.33651 28.1667 31.34375 28.15625 C 31.348368 28.15029 31.40625 28.09375 31.40625 28.09375 A 1.0001 1.0001 0 0 0 31.65625 27.625 C 32.262258 26.585852 32.76414 25.266923 33 23.9375 C 33.311724 23.774287 33.663772 23.754587 33.90625 23.4375 C 34.387755 22.80784 34.669748 21.914027 34.78125 20.6875 C 34.86934 19.630463 34.567276 18.860912 34.09375 18.28125 C 34.614087 16.678163 35.229701 14.117068 35.03125 11.5 C 34.92229 10.063091 34.542308 8.6308269 33.6875 7.4375 C 32.915843 6.3602537 31.663622 5.6201187 30.09375 5.28125 C 29.03533 3.8674576 27.111401 3.3125 24.90625 3.3125 L 24.875 3.3125 z M 24.90625 5.3125 C 24.91874 5.3125 24.92507 5.3124552 24.9375 5.3125 C 26.934359 5.3197 28.209545 5.8815416 28.625 6.59375 L 28.875 7.03125 L 29.375 7.09375 C 30.748239 7.2868617 31.504808 7.8152019 32.0625 8.59375 C 32.620192 9.3722981 32.94021 10.455659 33.03125 11.65625 C 33.21333 14.057432 32.519634 16.876276 32.0625 18.15625 L 31.75 19 L 32.53125 19.40625 C 32.523543 19.434675 32.85239 19.765997 32.8125 20.5 C 32.811 20.51632 32.8141 20.51519 32.8125 20.53125 C 32.72051 21.473313 32.478171 22.002103 32.3125 22.21875 C 32.144005 22.43909 32.060417 22.40625 32.09375 22.40625 L 31.21875 22.40625 L 31.09375 23.28125 C 30.921068 24.576367 30.261774 26.210858 29.6875 27.03125 L 29.65625 27.03125 C 29.598816 27.117401 29.55401 27.220692 29.5 27.3125 C 29.238584 27.618356 28.843484 28.020043 28.28125 28.5 C 27.347853 29.296803 26.111111 30 25 30 C 23.9 30 22.648176 29.260936 21.6875 28.4375 C 20.854347 27.72337 20.359844 27.110141 20.21875 26.9375 C 20.21435 26.9312 20.22315 26.91259 20.21875 26.90625 C 19.629877 26.056559 18.95189 24.561051 18.78125 23.28125 L 18.6875 22.40625 L 17.875 22.40625 C 17.840129 22.389375 17.748015 22.33875 17.65625 22.21875 C 17.478664 21.986522 17.230786 21.451164 17.09375 20.53125 C 17.09205 20.5112 17.09475 20.51956 17.09375 20.5 C 17.09155 20.48438 17.09595 20.4846 17.09375 20.46875 C 17.07772 19.710532 17.548752 19.290415 17.46875 19.34375 L 18.03125 18.9375 L 17.875 18.25 C 16.952145 14.607151 16.807166 11.302893 17.78125 9.0625 C 18.752632 6.8283223 20.722691 5.4141553 24.90625 5.3125 z M 21.09375 30.53125 C 22.148166 31.309451 23.46697 32 25 32 C 26.498358 32 27.785979 31.341906 28.8125 30.59375 C 28.817045 31.203845 28.83655 31.827061 28.90625 32.59375 L 28.90625 32.71875 L 28.96875 32.84375 C 29.145032 33.304041 29.393377 33.696045 29.6875 34.0625 A 1.0001 1.0001 0 0 0 29.65625 34.1875 C 29.65625 34.1875 29.418526 34.842142 28.71875 35.5625 C 28.018974 36.282858 26.934848 37 25 37 C 23.072727 37 21.947753 36.249832 21.21875 35.5 C 20.489747 34.750168 20.25 34.0625 20.25 34.0625 C 20.537743 33.688225 20.777048 33.283829 20.9375 32.8125 L 20.96875 32.71875 L 21 32.625 C 21.084407 31.865344 21.093479 31.183013 21.09375 30.53125 z M 31.25 35.4375 C 31.600241 35.663364 31.965314 35.873931 32.34375 36.0625 C 33.80336 36.789803 35.461883 37.352605 37.03125 38.03125 C 38.600617 38.709895 40.067092 39.481266 41.125 40.5625 C 41.968388 41.424485 42.475983 42.574326 42.75 44 L 7.25 44 C 7.5253473 42.575424 8.0266515 41.425079 8.875 40.5625 C 9.93913 39.48052 11.429772 38.710268 13 38.03125 C 14.570228 37.352232 16.211951 36.792181 17.65625 36.0625 C 18.017325 35.88008 18.384556 35.686837 18.71875 35.46875 C 18.943359 35.872414 19.284265 36.395065 19.78125 36.90625 C 20.802247 37.956418 22.527273 39 25 39 C 27.465152 39 29.156026 37.967142 30.15625 36.9375 C 30.702605 36.375076 31.036021 35.849908 31.25 35.4375 z" overflow="visible" enable-background="accumulate" font-family="Bitstream Vera Sans"/>
	</svg>
	<svg id="articles" version="1.1" xmlns="http://www.w3.org/2000/svg" xmlns:xlink="http://www.w3.org/1999/xlink" x="0px" y="0px" viewBox="0 0 111.26 122.88" style="enable-background:new 0 0 111.26 122.88" xml:space="preserve"><style type="text/css">.st0{fill-rule:evenodd;clip-rule:evenodd;}</style><g><path class="st0" d="M93.37,19.34h10.43c2.05,0,3.92,0.84,5.27,2.19c1.35,1.35,2.19,3.22,2.19,5.27v88.62 c0,2.06-0.84,3.92-2.19,5.27c-1.35,1.35-3.22,2.19-5.27,2.19H25.35c-2.05,0-3.92-0.84-5.27-2.19c-1.35-1.35-2.19-3.21-2.19-5.27 v-11.88H7.46c-2.05,0-3.92-0.84-5.27-2.19C0.84,100,0,98.13,0,96.08V7.46C0,5.4,0.84,3.54,2.19,2.19C3.54,0.84,5.4,0,7.46,0h78.45 c2.05,0,3.92,0.84,5.27,2.19c1.35,1.35,2.19,3.22,2.19,5.27V19.34L93.37,19.34L93.37,19.34z M48.45,44.5h-5.31 c-1.87,0-3.4-1.53-3.4-3.4c0-6.99-1.79-14.67,6.78-16.86c3.88-0.99,4.89,3.28,0.77,3.58c-2.52,0.18-3.01,1.81-3.09,4.27l4.35,0 c1.87,0,3.4,1.53,3.4,3.4v5.52C51.95,42.92,50.37,44.5,48.45,44.5L48.45,44.5L48.45,44.5z M32.42,44.5h-5.31 c-1.87,0-3.4-1.53-3.4-3.4c0-6.99-1.79-14.67,6.78-16.86c3.88-0.99,4.9,3.28,0.77,3.58c-2.52,0.18-3.01,1.81-3.09,4.27l4.35,0 c1.87,0,3.4,1.53,3.4,3.4v5.52C35.92,42.92,34.34,44.5,32.42,44.5L32.42,44.5L32.42,44.5z M60.47,41.35 c-1.72,0-3.11-1.39-3.11-3.11c0-1.72,1.39-3.11,3.11-3.11h6.94c1.72,0,3.11,1.39,3.11,3.11c0,1.72-1.4,3.11-3.11,3.11H60.47 L60.47,41.35z M24.59,61.06c-1.72,0-3.11-1.39-3.11-3.11c0-1.72,1.39-3.11,3.11-3.11h44.19c1.72,0,3.11,1.4,3.11,3.11 c0,1.72-1.39,3.11-3.11,3.11H24.59L24.59,61.06z M24.59,79.46c-1.72,0-3.11-1.4-3.11-3.11c0-1.72,1.39-3.11,3.11-3.11h44.19 c1.72,0,3.11,1.4,3.11,3.11c0,1.72-1.39,3.11-3.11,3.11H24.59L24.59,79.46z M24.28,103.54v11.88c0,0.29,0.12,0.56,0.32,0.75 c0.2,0.2,0.46,0.32,0.75,0.32h78.45c0.29,0,0.56-0.12,0.75-0.32c0.2-0.2,0.32-0.46,0.32-0.75V26.8c0-0.29-0.12-0.56-0.32-0.75 c-0.2-0.2-0.46-0.32-0.75-0.32H93.37v70.34c0,2.05-0.84,3.92-2.19,5.27c-1.35,1.35-3.22,2.19-5.27,2.19L24.28,103.54L24.28,103.54 L24.28,103.54z M85.91,6.39H7.46c-0.29,0-0.56,0.12-0.75,0.32c-0.2,0.2-0.32,0.46-0.32,0.75v88.62c0,0.29,0.12,0.56,0.32,0.75 c0.2,0.2,0.46,0.32,0.75,0.32h78.45c0.29,0,0.56-0.12,0.75-0.32c0.2-0.2,0.32-0.46,0.32-0.75V7.46c0-0.29-0.12-0.56-0.32-0.75 C86.47,6.51,86.2,6.39,85.91,6.39L85.91,6.39L85.91,6.39z"/></g></svg>
	<svg id="about" fill="inherit" version="1.1" xmlns="http://www.w3.org/2000/svg" xmlns:xlink="http://www.w3.org/1999/xlink" viewBox="0 0 416.979 416.979" xml:space="preserve">
		<g>
			<path d="M356.004,61.156c-81.37-81.47-213.377-81.551-294.848-0.182c-81.47,81.371-81.552,213.379-0.181,294.85
				c81.369,81.47,213.378,81.551,294.849,0.181C437.293,274.636,437.375,142.626,356.004,61.156z M237.6,340.786
				c0,3.217-2.607,5.822-5.822,5.822h-46.576c-3.215,0-5.822-2.605-5.822-5.822V167.885c0-3.217,2.607-5.822,5.822-5.822h46.576
				c3.215,0,5.822,2.604,5.822,5.822V340.786z M208.49,137.901c-18.618,0-33.766-15.146-33.766-33.765
				c0-18.617,15.147-33.766,33.766-33.766c18.619,0,33.766,15.148,33.766,33.766C242.256,122.755,227.107,137.901,208.49,137.901z"/>
		</g>
	</svg>
	<svg id="posts" style="width: 1em; height: 1em;vertical-align: middle;fill: currentColor;overflow: hidden;" viewBox="0 0 1024 1024" version="1.1" xmlns="http://www.w3.org/2000/svg"><path d="M802.611178 1024 221.388822 1024C150.056261 1024 92.228071 966.702156 92.228071 896.020753L92.228071 128.149368C92.228071 57.465919 150.056261 0.168074 221.388822 0.168074l387.482253 0c43.220127-0.677778 60.424633 0.91326 64.579352 0.91326L673.450427 0.168074l258.321502 255.958493c0 46.991932 0 53.984718 0 63.989623l0 575.90661C931.771929 966.702156 873.943739 1024 802.611178 1024zM673.450427 64.159745c0 76.179391 0 127.975151 0 127.975151 0 35.338653 28.913071 63.991671 64.581399 63.991671l129.160751 0L673.450427 64.159745zM867.19053 320.114143c-75.188319 0-129.160751 0-129.160751 0-71.334608 0-129.160751-57.293749-129.160751-127.981294 0 0-1.505036-51.353464-0.915308-127.975151L221.388822 64.157697c-35.66628 0-64.579352 28.642779-64.579352 63.989623l0 767.871385c0 35.338653 28.913071 63.989623 64.579352 63.989623l581.222356 0c35.66628 0 64.579352-28.653018 64.579352-63.989623L867.19053 320.114143zM705.740103 768.039459 318.25785 768.039459c-17.83314 0-32.289676-14.327533-32.289676-31.992764 0-17.673422 14.454488-31.998907 32.289676-31.998907l387.482253 0c17.83314 0 32.287628 14.325485 32.287628 31.998907C738.027731 753.711926 723.573243 768.039459 705.740103 768.039459zM705.740103 576.070589 318.25785 576.070589c-17.83314 0-32.289676-14.323437-32.289676-31.996859 0-17.665231 14.454488-31.990716 32.289676-31.990716l387.482253 0c17.83314 0 32.287628 14.325485 32.287628 31.990716C738.027731 561.747152 723.573243 576.070589 705.740103 576.070589z"  /></svg>
	<svg id="purposes" version="1.0" xmlns="http://www.w3.org/2000/svg" width="1280.000000pt" height="1280.000000pt" viewBox="0 0 1280.000000 1280.000000" preserveAspectRatio="xMidYMid meet">
		<g transform="translate(0.000000,1280.000000) scale(0.100000,-0.100000)"
		fill="inherit" stroke="none">
		<path d="M6322 12779 c-25 -12 -55 -39 -70 -62 l-27 -40 -3 -293 -3 -292 -62
		-6 c-34 -3 -129 -10 -212 -16 -1316 -95 -2585 -676 -3544 -1623 -1002 -990
		-1589 -2277 -1682 -3684 l-12 -183 -264 0 c-297 0 -335 -6 -387 -56 -85 -83
		-64 -228 41 -280 34 -17 66 -19 324 -22 l286 -3 7 -122 c73 -1279 550 -2458
		1390 -3432 109 -126 379 -398 516 -520 956 -847 2141 -1340 3425 -1425 83 -5
		156 -10 163 -10 9 0 12 -63 12 -282 0 -254 2 -287 19 -324 60 -132 240 -137
		313 -9 23 39 23 46 23 327 l0 287 85 6 c424 29 614 54 926 121 1376 293 2589
		1085 3423 2233 552 759 912 1668 1031 2601 23 181 40 385 40 481 l0 68 298 3
		c290 3 298 4 334 26 115 72 110 249 -9 308 -34 17 -67 19 -330 22 l-293 3 0
		68 c0 37 -5 126 -10 197 -97 1226 -582 2374 -1400 3309 -976 1117 -2399 1824
		-3865 1920 -49 3 -121 8 -160 11 l-70 5 3 242 c4 285 0 331 -35 385 -49 76
		-142 102 -221 61z m-102 -2113 l0 -713 -87 -7 c-1089 -84 -2066 -650 -2678
		-1550 -282 -415 -472 -881 -560 -1376 -21 -120 -45 -325 -45 -387 l0 -53 -715
		0 c-565 0 -715 3 -715 13 0 46 23 313 36 417 164 1340 872 2559 1958 3375 797
		597 1739 936 2746 988 30 2 56 4 58 5 1 1 2 -319 2 -712z m605 693 c1174 -95
		2292 -624 3131 -1480 678 -693 1135 -1559 1323 -2504 49 -245 91 -587 91 -737
		l0 -58 -709 0 -709 0 -7 68 c-32 356 -79 586 -179 887 -444 1330 -1650 2282
		-3050 2406 l-136 12 -2 710 c-2 390 -2 709 -1 710 3 3 117 -3 248 -14z m-605
		-2764 l0 -645 -22 -4 c-13 -3 -63 -13 -113 -22 -172 -32 -379 -116 -534 -217
		-358 -233 -599 -591 -682 -1015 l-22 -112 -645 0 -645 0 8 83 c46 538 262
		1074 607 1510 98 123 321 348 438 441 384 305 812 500 1280 585 100 18 234 35
		308 40 l22 1 0 -645z m585 619 c1040 -143 1937 -885 2280 -1885 74 -215 125
		-452 143 -656 l8 -93 -646 0 -647 0 -12 81 c-59 389 -306 779 -640 1014 -171
		119 -397 216 -590 251 -48 9 -95 17 -106 19 -20 4 -20 11 -17 650 l2 646 58
		-6 c31 -3 107 -13 167 -21z m-3955 -3047 c0 -62 24 -267 45 -387 238 -1337
		1225 -2431 2525 -2798 249 -70 462 -109 713 -128 l87 -7 0 -711 0 -712 -67 3
		c-929 44 -1847 358 -2613 897 -1091 766 -1838 1949 -2054 3251 -28 167 -66
		531 -66 633 0 9 150 12 715 12 l715 0 0 -53z m2019 -59 c123 -624 612 -1117
		1221 -1233 47 -9 95 -18 108 -21 l22 -4 0 -645 c0 -355 -3 -645 -7 -645 -107
		3 -360 44 -523 86 -831 213 -1533 801 -1885 1581 -126 280 -215 615 -240 911
		l-8 82 645 0 645 0 22 -112z m4359 20 c-31 -360 -152 -757 -330 -1083 -348
		-637 -921 -1117 -1605 -1344 -210 -70 -410 -111 -655 -135 l-58 -6 -2 645 c-3
		639 -3 646 17 650 11 2 60 11 109 20 417 77 806 355 1034 735 92 154 167 360
		193 529 l12 81 647 0 646 0 -8 -92z m2142 40 c0 -29 -5 -107 -10 -173 -103
		-1209 -618 -2305 -1481 -3151 -398 -389 -815 -683 -1314 -925 -467 -227 -962
		-378 -1466 -448 -236 -33 -519 -54 -519 -38 0 4 0 324 0 711 l0 703 138 12
		c164 15 373 50 537 90 1170 288 2130 1173 2511 2316 100 301 147 531 179 888
		l7 67 709 0 709 0 0 -52z"/>
		</g>
	</svg>
</svg>